<svg width="60" height="60" viewBox="0 0 60 60" fill="none" xmlns="http://www.w3.org/2000/svg">
<g clip-path="url(#clip0_464_29)">
<path d="M17.0623 6.48203C15.4455 6.9996 14.3377 8.05405 13.9304 9.47013L13.6892 10.2808L17.554 32.1992L21.4188 54.1175L21.9227 54.7968C22.6704 55.8273 23.5964 56.321 25.0759 56.515C25.6542 56.5848 26.2245 56.4944 34.3704 55.058C42.5162 53.6217 43.083 53.5116 43.6026 53.2482C44.9266 52.5599 45.6278 51.7793 45.978 50.5552L46.2191 49.7446L42.3543 27.8262L38.4895 5.90784L37.9857 5.22853C37.253 4.22572 36.3679 3.73491 34.8832 3.51155C34.3441 3.43479 33.7917 3.51198 25.8304 4.90567C21.1627 5.71861 17.2255 6.43305 17.0623 6.48203ZM29.2609 6.7063C29.3416 6.76282 29.4235 6.94043 29.4546 7.11687C29.5721 7.78344 29.7907 7.70448 26.1343 8.34918C22.478 8.99389 22.7104 8.99335 22.5928 8.32678C22.5617 8.15034 22.5779 7.95545 22.6344 7.87473C22.7717 7.6787 29.0649 6.56904 29.2609 6.7063ZM40.0394 27.0215L43.2543 45.2541L32.9617 47.069L22.6691 48.8839L19.4542 30.6512L16.2393 12.4186L26.5319 10.6038L36.8245 8.78889L40.0394 27.0215ZM34.2023 48.6594C36.6303 49.3027 36.5006 52.7519 34.0402 53.1858C33.5795 53.267 33.2849 53.2583 32.9747 53.1614C30.6488 52.4092 30.8464 49.0591 33.2382 48.6374C33.5617 48.5804 33.948 48.5931 34.2023 48.6594Z" fill="#3A3737"/>
<path d="M22.6778 7.94798C22.6011 8.14344 22.7187 8.63818 22.8738 8.77255C23.0041 8.88097 23.429 8.82625 26.1703 8.32269L29.3019 7.74018L29.3797 7.49398C29.4242 7.34464 29.4075 7.13533 29.3423 6.99521L29.2271 6.74264L25.9674 7.28708C23.8288 7.65408 22.7049 7.87245 22.6778 7.94798Z" fill="#ECECEC"/>
<path d="M19.5522 30.634L22.7671 48.8666L32.9617 47.069L43.1563 45.2714L39.9414 27.0388L36.7265 8.80617L26.5319 10.6038L16.3373 12.4013L19.5522 30.634Z" fill="#EADB11"/>
<path d="M32.8634 48.8046C32.446 48.959 32.0642 49.2588 31.7799 49.6526C30.6017 51.2248 32.0728 53.4922 34.0333 53.1466C35.9938 52.8009 36.6008 50.167 34.9559 49.0926C34.3136 48.6601 33.5272 48.5562 32.8634 48.8046Z" fill="#ECECEC"/>
</g>
<defs>
<clipPath id="clip0_464_29">
<rect width="50.963" height="50.963" fill="white" transform="translate(0.435059 9.34314) rotate(-10)"/>
</clipPath>
</defs>
</svg>
